<?xml version="1.0" standalone="no"?>
<!DOCTYPE svg PUBLIC "-//W3C//DTD SVG 20010904//EN"
 "http://www.w3.org/TR/2001/REC-SVG-20010904/DTD/svg10.dtd">
<svg version="1.0" xmlns="http://www.w3.org/2000/svg"
 width="512.000000pt" height="512.000000pt" viewBox="0 0 512.000000 512.000000"
 preserveAspectRatio="xMidYMid meet">
<metadata>
Created by potrace 1.14, written by Peter Selinger 2001-2017
</metadata>
<g transform="translate(0.000000,512.000000) scale(0.100000,-0.100000)"
fill="#000000" stroke="none">
<path d="M2360 5114 c-202 -24 -306 -41 -425 -71 -912 -228 -1630 -946 -1858
-1858 -55 -222 -72 -365 -72 -625 0 -260 17 -403 72 -625 228 -912 946 -1630
1858 -1858 222 -55 365 -72 625 -72 260 0 403 17 625 72 912 228 1630 946
1858 1858 55 222 72 365 72 625 0 260 -17 403 -72 625 -225 902 -929 1614
-1828 1851 -207 54 -368 75 -610 79 -115 2 -226 1 -245 -1z m1112 -725 c435
-218 776 -577 966 -1018 299 -694 196 -1474 -273 -2076 -92 -118 -89 -117
-120 -51 -59 125 -173 225 -304 267 -53 17 -100 22 -238 27 l-172 4 -3 417
c-3 405 -4 417 -25 457 -27 50 -75 97 -122 121 -34 17 -90 18 -838 21 l-803 2
0 255 0 255 268 0 c299 0 339 6 406 62 21 17 49 54 62 82 23 50 24 57 24 339
l0 287 288 0 c318 0 371 7 472 61 105 56 200 167 241 284 14 39 23 96 27 163
6 120 -7 116 144 41z m-2290 -1986 l608 -608 0 -150 c0 -174 14 -255 60 -346
64 -125 225 -248 348 -264 26 -3 59 -9 75 -11 l27 -6 0 -244 c0 -134 -3 -244
-6 -244 -29 0 -274 57 -352 81 -563 179 -1027 598 -1260 1138 -130 302 -192
664 -163 959 12 126 41 302 50 302 3 0 279 -273 613 -607z"/>
</g>
</svg>
